<mxfile host="app.diagrams.net" modified="2023-06-11T15:09:32.316Z" agent="Mozilla/5.0 (Windows NT 10.0; Win64; x64; rv:109.0) Gecko/20100101 Firefox/113.0" etag="e88E7RY82kC5ScsaN4D6" version="21.1.1" type="device">
  <diagram name="Seite-1" id="0KKEf8kxCQD-pisASefn">
    <mxGraphModel dx="2261" dy="754" grid="1" gridSize="10" guides="1" tooltips="1" connect="1" arrows="1" fold="1" page="1" pageScale="1" pageWidth="827" pageHeight="1169" math="0" shadow="0">
      <root>
        <mxCell id="0" />
        <mxCell id="1" parent="0" />
        <mxCell id="I18KN3Xctdsx8iZ6SbTH-1" value="Algorithmus" style="rounded=0;whiteSpace=wrap;html=1;" parent="1" vertex="1">
          <mxGeometry x="-670" y="400" width="230" height="160" as="geometry" />
        </mxCell>
        <mxCell id="I18KN3Xctdsx8iZ6SbTH-10" value="Buttons" style="whiteSpace=wrap;html=1;aspect=fixed;" parent="1" vertex="1">
          <mxGeometry x="-670" y="180" width="100" height="100" as="geometry" />
        </mxCell>
        <mxCell id="I18KN3Xctdsx8iZ6SbTH-11" value="" style="endArrow=none;html=1;rounded=0;exitX=0;exitY=0;exitDx=0;exitDy=0;endFill=0;startArrow=classic;startFill=1;" parent="1" source="I18KN3Xctdsx8iZ6SbTH-10" edge="1">
          <mxGeometry width="50" height="50" relative="1" as="geometry">
            <mxPoint x="-630" y="350" as="sourcePoint" />
            <mxPoint x="-670" y="150" as="targetPoint" />
          </mxGeometry>
        </mxCell>
        <mxCell id="I18KN3Xctdsx8iZ6SbTH-12" value="" style="endArrow=none;html=1;rounded=0;exitX=0.25;exitY=0;exitDx=0;exitDy=0;startArrow=classic;startFill=1;" parent="1" edge="1">
          <mxGeometry width="50" height="50" relative="1" as="geometry">
            <mxPoint x="-635" y="180" as="sourcePoint" />
            <mxPoint x="-635" y="150" as="targetPoint" />
          </mxGeometry>
        </mxCell>
        <mxCell id="I18KN3Xctdsx8iZ6SbTH-14" value="" style="endArrow=none;html=1;rounded=0;exitX=0.75;exitY=0;exitDx=0;exitDy=0;startArrow=classic;startFill=1;" parent="1" edge="1">
          <mxGeometry width="50" height="50" relative="1" as="geometry">
            <mxPoint x="-570" y="180" as="sourcePoint" />
            <mxPoint x="-570" y="150" as="targetPoint" />
          </mxGeometry>
        </mxCell>
        <mxCell id="I18KN3Xctdsx8iZ6SbTH-15" value="BUTTON1-4 IN" style="text;html=1;strokeColor=none;fillColor=none;align=center;verticalAlign=middle;whiteSpace=wrap;rounded=0;" parent="1" vertex="1">
          <mxGeometry x="-680" y="110" width="110" height="30" as="geometry" />
        </mxCell>
        <mxCell id="I18KN3Xctdsx8iZ6SbTH-17" value="" style="endArrow=none;html=1;rounded=0;exitX=0;exitY=0.25;exitDx=0;exitDy=0;startArrow=classic;startFill=1;" parent="1" source="I18KN3Xctdsx8iZ6SbTH-10" edge="1">
          <mxGeometry width="50" height="50" relative="1" as="geometry">
            <mxPoint x="-700" y="230" as="sourcePoint" />
            <mxPoint x="-700" y="205" as="targetPoint" />
          </mxGeometry>
        </mxCell>
        <mxCell id="I18KN3Xctdsx8iZ6SbTH-18" value="" style="endArrow=none;html=1;rounded=0;exitX=0.75;exitY=0;exitDx=0;exitDy=0;startArrow=classic;startFill=1;" parent="1" edge="1">
          <mxGeometry width="50" height="50" relative="1" as="geometry">
            <mxPoint x="-600" y="180" as="sourcePoint" />
            <mxPoint x="-600" y="150" as="targetPoint" />
          </mxGeometry>
        </mxCell>
        <mxCell id="I18KN3Xctdsx8iZ6SbTH-19" value="BUTTON_START IN" style="text;html=1;strokeColor=none;fillColor=none;align=center;verticalAlign=middle;whiteSpace=wrap;rounded=0;" parent="1" vertex="1">
          <mxGeometry x="-812" y="190" width="110" height="30" as="geometry" />
        </mxCell>
        <mxCell id="I18KN3Xctdsx8iZ6SbTH-22" value="" style="endArrow=none;html=1;rounded=0;exitX=0;exitY=0;exitDx=0;exitDy=0;endFill=0;startArrow=classic;startFill=1;" parent="1" source="I18KN3Xctdsx8iZ6SbTH-1" edge="1">
          <mxGeometry width="50" height="50" relative="1" as="geometry">
            <mxPoint x="-670" y="310" as="sourcePoint" />
            <mxPoint x="-670" y="280" as="targetPoint" />
          </mxGeometry>
        </mxCell>
        <mxCell id="I18KN3Xctdsx8iZ6SbTH-23" value="" style="endArrow=none;html=1;rounded=0;exitX=0.152;exitY=0;exitDx=0;exitDy=0;startArrow=classic;startFill=1;exitPerimeter=0;" parent="1" source="I18KN3Xctdsx8iZ6SbTH-1" edge="1">
          <mxGeometry width="50" height="50" relative="1" as="geometry">
            <mxPoint x="-635" y="310" as="sourcePoint" />
            <mxPoint x="-635" y="280" as="targetPoint" />
          </mxGeometry>
        </mxCell>
        <mxCell id="I18KN3Xctdsx8iZ6SbTH-24" value="" style="endArrow=none;html=1;rounded=0;exitX=0.435;exitY=0;exitDx=0;exitDy=0;startArrow=classic;startFill=1;exitPerimeter=0;" parent="1" source="I18KN3Xctdsx8iZ6SbTH-1" edge="1">
          <mxGeometry width="50" height="50" relative="1" as="geometry">
            <mxPoint x="-570" y="310" as="sourcePoint" />
            <mxPoint x="-570" y="280" as="targetPoint" />
          </mxGeometry>
        </mxCell>
        <mxCell id="I18KN3Xctdsx8iZ6SbTH-25" value="" style="endArrow=none;html=1;rounded=0;startArrow=classic;startFill=1;" parent="1" edge="1">
          <mxGeometry width="50" height="50" relative="1" as="geometry">
            <mxPoint x="-600" y="400" as="sourcePoint" />
            <mxPoint x="-600" y="280" as="targetPoint" />
          </mxGeometry>
        </mxCell>
        <mxCell id="I18KN3Xctdsx8iZ6SbTH-26" value="" style="endArrow=none;html=1;rounded=0;exitX=0.563;exitY=-0.005;exitDx=0;exitDy=0;startArrow=classic;startFill=1;exitPerimeter=0;entryX=1;entryY=0.75;entryDx=0;entryDy=0;" parent="1" source="I18KN3Xctdsx8iZ6SbTH-1" target="I18KN3Xctdsx8iZ6SbTH-10" edge="1">
          <mxGeometry width="50" height="50" relative="1" as="geometry">
            <mxPoint x="-540" y="264" as="sourcePoint" />
            <mxPoint x="-570" y="264" as="targetPoint" />
            <Array as="points">
              <mxPoint x="-540" y="255" />
            </Array>
          </mxGeometry>
        </mxCell>
        <mxCell id="I18KN3Xctdsx8iZ6SbTH-27" value="BUTTON1-4 OUT" style="text;html=1;strokeColor=none;fillColor=none;align=center;verticalAlign=middle;whiteSpace=wrap;rounded=0;" parent="1" vertex="1">
          <mxGeometry x="-785" y="290" width="110" height="30" as="geometry" />
        </mxCell>
        <mxCell id="I18KN3Xctdsx8iZ6SbTH-28" value="BUTTON_START OUT" style="text;html=1;strokeColor=none;fillColor=none;align=center;verticalAlign=middle;whiteSpace=wrap;rounded=0;" parent="1" vertex="1">
          <mxGeometry x="-570" y="220" width="110" height="30" as="geometry" />
        </mxCell>
        <mxCell id="I18KN3Xctdsx8iZ6SbTH-32" value="Random" style="whiteSpace=wrap;html=1;aspect=fixed;" parent="1" vertex="1">
          <mxGeometry x="-280" y="460" width="100" height="100" as="geometry" />
        </mxCell>
        <mxCell id="I18KN3Xctdsx8iZ6SbTH-36" value="" style="endArrow=classic;html=1;rounded=0;fontFamily=Helvetica;fontSize=12;fontColor=default;entryX=0.75;entryY=0;entryDx=0;entryDy=0;exitX=1.009;exitY=0.131;exitDx=0;exitDy=0;exitPerimeter=0;" parent="1" target="I18KN3Xctdsx8iZ6SbTH-32" edge="1">
          <mxGeometry width="50" height="50" relative="1" as="geometry">
            <mxPoint x="-440" y="400" as="sourcePoint" />
            <mxPoint x="-257" y="439" as="targetPoint" />
            <Array as="points">
              <mxPoint x="-205" y="400" />
            </Array>
          </mxGeometry>
        </mxCell>
        <mxCell id="I18KN3Xctdsx8iZ6SbTH-37" value="START_WAIT_OUT" style="text;html=1;strokeColor=none;fillColor=none;align=center;verticalAlign=middle;whiteSpace=wrap;rounded=0;" parent="1" vertex="1">
          <mxGeometry x="-440" y="370" width="110" height="30" as="geometry" />
        </mxCell>
      </root>
    </mxGraphModel>
  </diagram>
</mxfile>
